<svg xmlns="http://www.w3.org/2000/svg" viewBox="0 0 900 200" width="900" height="200">
  <defs>
    <linearGradient id="bg" x1="0%" y1="0%" x2="100%" y2="100%">
      <stop offset="0%" stop-color="#00ADD8"/>
      <stop offset="100%" stop-color="#0D1B2A"/>
    </linearGradient>
    <linearGradient id="glow" x1="0%" y1="0%" x2="100%" y2="100%">
      <stop offset="0%" stop-color="#ffffff" stop-opacity="0.2"/>
      <stop offset="100%" stop-color="#ffffff" stop-opacity="0.05"/>
    </linearGradient>
  </defs>

  <rect width="900" height="200" rx="12" fill="url(#bg)"/>

  <g stroke="#ffffff" stroke-opacity="0.04" stroke-width="1">
    <line x1="0" y1="50" x2="900" y2="50"/><line x1="0" y1="100" x2="900" y2="100"/>
    <line x1="0" y1="150" x2="900" y2="150"/><line x1="150" y1="0" x2="150" y2="200"/>
    <line x1="300" y1="0" x2="300" y2="200"/><line x1="450" y1="0" x2="450" y2="200"/>
    <line x1="600" y1="0" x2="600" y2="200"/><line x1="750" y1="0" x2="750" y2="200"/>
  </g>

  <!-- House icon (Home Assistant) -->
  <g transform="translate(70, 50)">
    <polygon points="40,10 5,45 15,45 15,80 65,80 65,45 75,45" fill="url(#glow)" stroke="#ffffff" stroke-width="2" opacity="0.9"/>
    <rect x="22" y="50" width="36" height="30" rx="2" fill="#ffffff" opacity="0.15"/>
    <!-- Router icon inside house -->
    <rect x="27" y="58" width="26" height="10" rx="3" fill="#ffffff" opacity="0.4"/>
    <circle cx="33" cy="63" r="2" fill="#00ADD8" opacity="0.8"/>
    <circle cx="40" cy="63" r="2" fill="#00ADD8" opacity="0.8"/>
    <line x1="35" y1="52" x2="32" y2="58" stroke="#ffffff" stroke-width="1.5" opacity="0.4"/>
    <line x1="45" y1="52" x2="48" y2="58" stroke="#ffffff" stroke-width="1.5" opacity="0.4"/>
  </g>

  <text x="195" y="95" font-family="'Segoe UI', 'Helvetica Neue', Arial, sans-serif" font-size="40" font-weight="700" fill="#ffffff" letter-spacing="-1">
    GenieACS for HA
  </text>

  <text x="197" y="130" font-family="'Segoe UI', 'Helvetica Neue', Arial, sans-serif" font-size="16" fill="#ffffff" opacity="0.65" letter-spacing="0.3">
    Home Assistant integration for TR-069 device management
  </text>

  <g transform="translate(760, 45)" opacity="0.15">
    <text x="0" y="0" font-family="monospace" font-size="11" fill="#ffffff">sensor:</text>
    <text x="0" y="16" font-family="monospace" font-size="11" fill="#ffffff">  devices: 12</text>
    <text x="0" y="32" font-family="monospace" font-size="11" fill="#ffffff">  online: 10</text>
    <text x="0" y="48" font-family="monospace" font-size="11" fill="#ffffff">  faults: 0</text>
    <text x="0" y="64" font-family="monospace" font-size="11" fill="#ffffff">  tasks: 3</text>
  </g>
</svg>
