<svg xmlns="http://www.w3.org/2000/svg" viewBox="0 0 1280 320" width="1280" height="320"><defs><path id="grw700g" d="m46 246v16q0 78 31 134q31 55 83 84q51 30 112 30q68 0 103-24q35-24 51-50h18v60h124v-584q0-51-30-82q-30-30-80-30h-332v110h288q28 0 28 30v129h-18q-10-16-28-33q-18-16-48-27q-30-11-76-11q-61 0-112 30q-52 29-83 84q-31 56-31 134zm262-138q58 0 97 37q39 37 39 104v10q0 68-38 105q-39 36-98 36q-58 0-97-36q-39-37-39-105v-10q0-67 39-104q39-37 97-37z"/><path id="grw700e" d="m296-14q-74 0-130 32q-57 31-88 88q-32 58-32 136v12q0 78 31 136q31 57 87 88q56 32 130 32q73 0 127-32q54-33 84-90q30-58 30-134v-43h-361q2-51 38-83q36-32 88-32q53 0 78 23q25 23 38 51l103-54q-14-26-41-56q-26-31-70-52q-44-22-112-22zm-121 319h232q-4 43-35 69q-30 26-79 26q-51 0-81-26q-30-26-37-69z"/><path id="grw700n" d="m70 0v496h124v-65h18q12 26 45 49q33 24 100 24q58 0 101-26q44-27 68-74q24-46 24-108v-296h-126v286q0 56-28 84q-27 28-78 28q-58 0-90-38q-32-39-32-108v-252z"/><path id="grw700i" d="m70 0v496h126v-496zm63 554q-34 0-57 22q-24 22-24 58q0 36 24 58q23 22 57 22q35 0 58-22q23-22 23-58q0-36-23-58q-23-22-58-22z"/><path id="grw700a" d="m224-14q-53 0-95 18q-42 19-67 54q-24 36-24 87q0 51 24 85q25 35 68 52q44 18 100 18h136v28q0 35-22 58q-22 22-70 22q-47 0-70-22q-23-21-30-55l-116 39q12 38 38 70q27 31 72 50q44 20 108 20q98 0 155-49q57-49 57-142v-185q0-30 28-30h40v-104h-84q-37 0-61 18q-24 18-24 48v1h-19q-4-12-18-31q-14-20-44-35q-30-15-82-15zm22 102q53 0 86 30q34 29 34 78v10h-127q-35 0-55-15q-20-15-20-42q0-27 21-44q21-17 61-17z"/><path id="grw700c" d="m303-14q-72 0-131 30q-58 30-92 87q-34 57-34 138v14q0 81 34 138q34 57 92 87q59 30 131 30q71 0 122-25q51-25 83-69q31-43 41-98l-122-26q-4 30-18 54q-14 24-39 38q-26 14-64 14q-38 0-68-16q-31-17-48-50q-18-32-18-79v-10q0-47 18-79q17-33 48-50q30-16 68-16q57 0 86 30q30 29 38 77l122-29q-13-53-44-96q-32-44-83-69q-51-25-122-25z"/><path id="grw700s" d="m276-14q-97 0-159 42q-62 42-75 120l116 30q7-35 24-55q16-20 40-29q25-8 54-8q44 0 65 16q21 15 21 38q0 23-20 36q-20 12-64 20l-28 5q-52 10-95 27q-43 18-69 49q-26 31-26 80q0 74 54 113q54 40 142 40q83 0 138-37q55-37 72-97l-117-36q-8 38-33 54q-24 16-60 16q-36 0-55-12q-19-13-19-35q0-24 20-35q20-12 54-18l28-5q56-10 102-27q45-16 72-46q26-31 26-83q0-78-56-121q-57-42-152-42z"/><path id="grw700hyphen" d="m68 198v114h296v-114z"/><path id="grw700h" d="m70 0v700h126v-265h18q8 16 25 32q17 16 45 27q29 10 73 10q58 0 101-26q44-27 68-74q24-46 24-108v-296h-126v286q0 56-28 84q-27 28-78 28q-58 0-90-38q-32-39-32-108v-252z"/><path id="mow500b" d="m339-10q-68 0-108 37q-40 38-40 103l23-25h-23v-105h-107v730h108v-157l-3-128h25l-23-25q0 65 40 102q41 38 108 38q83 0 133-56q50-56 50-152v-155q0-95-50-151q-50-56-133-56zm-37 94q53 0 83 30q30 31 30 89v144q0 58-30 89q-30 30-83 30q-51 0-80-31q-30-32-30-88v-144q0-56 30-88q29-31 80-31z"/><path id="mow500i" d="m81 0v98h193v354h-168v98h273v-452h177v-98zm235 645q-35 0-56 19q-20 18-20 49q0 32 20 50q21 19 56 19q36 0 57-19q20-18 20-50q0-31-20-49q-21-19-57-19z"/><path id="mow500n" d="m84 0v550h107v-105h26l-26-25q0 66 39 103q39 37 108 37q82 0 131-52q49-53 49-142v-366h-108v354q0 54-29 83q-29 29-79 29q-51 0-80-30q-30-31-30-89v-347z"/><path id="mow500a" d="m245-10q-86 0-135 45q-50 44-50 121q0 78 52 123q53 44 145 44h153v51q0 45-28 70q-28 25-79 25q-45 0-75-19q-30-20-35-52h-106q9 74 68 118q60 44 151 44q98 0 155-50q57-49 57-134v-376h-105v101h-18l18 20q0-60-46-96q-46-35-122-35zm32 83q58 0 96 29q37 30 37 76v72h-151q-42 0-66-23q-25-23-25-63q0-42 29-67q29-24 80-24z"/><path id="mow500r" d="m102 0v550h104v-105h26l-33-65q0 89 39 135q39 45 116 45q88 0 140-55q51-54 51-149v-37h-111v28q0 59-30 91q-29 31-82 31q-53 0-82-32q-30-32-30-90v-347z"/><path id="mow500y" d="m172-180l79 212l-205 518h119l115-310q7-20 14-48q7-28 12-46q4 18 11 46q7 28 14 48l108 310h115l-268-730z"/><path id="mow500underscore" d="m60-119v94h480v-94z"/><path id="mow500s" d="m281-9q-59 0-104 19q-44 19-70 53q-25 33-29 79h108q4-27 29-43q25-17 66-17h43q49 0 74 20q25 20 25 53q0 32-23 50q-22 19-66 25l-71 11q-88 14-129 50q-42 37-42 109q0 76 49 117q50 42 147 42h38q86 0 137-39q52-40 59-106h-108q-4 24-27 39q-22 15-61 15h-38q-47 0-68-18q-22-17-22-51q0-30 19-45q19-15 59-21l73-12q93-13 136-52q44-38 44-111q0-79-51-123q-52-44-154-44z"/><path id="mow500e" d="m300-10q-67 0-117 26q-51 27-78 75q-27 48-27 112v144q0 65 27 112q27 48 78 75q50 26 117 26q68 0 118-26q50-27 77-75q27-47 27-112v-98h-340v-46q0-61 31-93q30-32 88-32q47 0 76 16q29 17 36 49h107q-12-70-72-111q-60-42-148-42zm118 324v34q0 60-30 93q-30 33-88 33q-57 0-88-33q-30-33-30-94v-25l244 1z"/><path id="mow500o" d="m300-9q-68 0-118 26q-50 26-77 74q-27 48-27 113v142q0 66 27 113q27 48 77 74q50 26 118 26q68 0 118-26q50-26 77-74q27-47 27-113v-142q0-65-27-113q-27-48-77-74q-50-26-118-26zm0 95q55 0 85 31q30 30 30 87v142q0 58-30 88q-30 30-85 30q-54 0-84-30q-31-30-31-88v-142q0-57 31-87q30-31 84-31z"/><path id="mow500period" d="m300-10q-40 0-64 24q-24 23-24 63q0 41 24 66q24 24 64 24q41 0 65-24q23-25 23-66q0-40-23-63q-24-24-65-24z"/><path id="mow500u" d="m299-10q-99 0-158 58q-59 57-59 156v346h108v-346q0-57 29-88q29-32 80-32q52 0 81 32q30 31 30 88v346h108v-346q0-99-60-157q-59-57-159-57z"/><path id="mow500t" d="m360 0q-75 0-117 41q-42 41-42 114v297h-152v98h152v155h108v-155h215v-98h-215v-297q0-57 55-57h150v-98z"/><path id="mow500l" d="m379 0q-51 0-89 21q-38 20-60 58q-21 38-21 88v465h-180v98h288v-563q0-32 18-51q18-18 49-18h170v-98z"/><path id="mow800o" d="m300-10q-73 0-127 28q-54 27-83 76q-30 50-30 116v130q0 66 30 116q29 49 83 76q54 28 127 28q74 0 128-28q53-27 82-76q30-50 30-116v-130q0-66-30-116q-29-49-82-76q-54-28-128-28zm0 130q44 0 67 24q23 23 23 66v130q0 44-23 67q-23 23-67 23q-43 0-66-23q-24-23-24-67v-130q0-43 24-66q23-24 66-24z"/><path id="mow800n" d="m66 0v550h145v-105h44l-44-35q0 70 40 110q40 40 108 40q80 0 129-56q48-56 48-149v-355h-150v340q0 43-22 66q-23 24-64 24q-40 0-62-24q-22-23-22-66v-340z"/></defs><rect width="1280" height="320" fill="#f4f6f8"/><g fill="#10202c" ><use href="#grw700g" transform="matrix(0.15 0 0 -0.15 70.0 170.0)"/><use href="#grw700e" transform="matrix(0.15 0 0 -0.15 165.7 170.0)"/><use href="#grw700n" transform="matrix(0.15 0 0 -0.15 252.2 170.0)"/><use href="#grw700i" transform="matrix(0.15 0 0 -0.15 344.6 170.0)"/><use href="#grw700e" transform="matrix(0.15 0 0 -0.15 384.5 170.0)"/><use href="#grw700a" transform="matrix(0.15 0 0 -0.15 471.1 170.0)"/><use href="#grw700c" transform="matrix(0.15 0 0 -0.15 556.3 170.0)"/><use href="#grw700s" transform="matrix(0.15 0 0 -0.15 644.2 170.0)"/><use href="#grw700hyphen" transform="matrix(0.15 0 0 -0.15 722.8 170.0)"/><use href="#grw700h" transform="matrix(0.15 0 0 -0.15 787.6 170.0)"/><use href="#grw700a" transform="matrix(0.15 0 0 -0.15 880.0 170.0)"/></g><g fill="#5a6b78" ><use href="#mow500b" transform="matrix(0.028 0 0 -0.028 74.0 236.0)"/><use href="#mow500i" transform="matrix(0.028 0 0 -0.028 90.8 236.0)"/><use href="#mow500n" transform="matrix(0.028 0 0 -0.028 107.6 236.0)"/><use href="#mow500a" transform="matrix(0.028 0 0 -0.028 124.4 236.0)"/><use href="#mow500r" transform="matrix(0.028 0 0 -0.028 141.2 236.0)"/><use href="#mow500y" transform="matrix(0.028 0 0 -0.028 158.0 236.0)"/><use href="#mow500underscore" transform="matrix(0.028 0 0 -0.028 174.8 236.0)"/><use href="#mow500s" transform="matrix(0.028 0 0 -0.028 191.6 236.0)"/><use href="#mow500e" transform="matrix(0.028 0 0 -0.028 208.4 236.0)"/><use href="#mow500n" transform="matrix(0.028 0 0 -0.028 225.2 236.0)"/><use href="#mow500s" transform="matrix(0.028 0 0 -0.028 242.0 236.0)"/><use href="#mow500o" transform="matrix(0.028 0 0 -0.028 258.8 236.0)"/><use href="#mow500r" transform="matrix(0.028 0 0 -0.028 275.6 236.0)"/><use href="#mow500period" transform="matrix(0.028 0 0 -0.028 292.4 236.0)"/><use href="#mow500r" transform="matrix(0.028 0 0 -0.028 309.2 236.0)"/><use href="#mow500o" transform="matrix(0.028 0 0 -0.028 326.0 236.0)"/><use href="#mow500u" transform="matrix(0.028 0 0 -0.028 342.8 236.0)"/><use href="#mow500t" transform="matrix(0.028 0 0 -0.028 359.6 236.0)"/><use href="#mow500e" transform="matrix(0.028 0 0 -0.028 376.4 236.0)"/><use href="#mow500r" transform="matrix(0.028 0 0 -0.028 393.2 236.0)"/><use href="#mow500underscore" transform="matrix(0.028 0 0 -0.028 410.0 236.0)"/><use href="#mow500o" transform="matrix(0.028 0 0 -0.028 426.8 236.0)"/><use href="#mow500n" transform="matrix(0.028 0 0 -0.028 443.6 236.0)"/><use href="#mow500l" transform="matrix(0.028 0 0 -0.028 460.4 236.0)"/><use href="#mow500i" transform="matrix(0.028 0 0 -0.028 477.2 236.0)"/><use href="#mow500n" transform="matrix(0.028 0 0 -0.028 494.0 236.0)"/><use href="#mow500e" transform="matrix(0.028 0 0 -0.028 510.8 236.0)"/></g><rect x="545.6" y="208" width="84" height="38" rx="19" fill="#1faa59"/><g fill="#fff" ><use href="#mow800o" transform="matrix(0.026 0 0 -0.026 572.0 235.0)"/><use href="#mow800n" transform="matrix(0.026 0 0 -0.026 587.6 235.0)"/></g></svg>